<svg width="25" height="25" viewBox="0 0 25 25" fill="none" xmlns="http://www.w3.org/2000/svg">
<path d="M14.5833 2.08333H6.24996C5.69742 2.08333 5.16752 2.30282 4.77682 2.69352C4.38612 3.08422 4.16663 3.61413 4.16663 4.16666V20.8333C4.16663 21.3859 4.38612 21.9158 4.77682 22.3065C5.16752 22.6972 5.69742 22.9167 6.24996 22.9167H18.75C19.3025 22.9167 19.8324 22.6972 20.2231 22.3065C20.6138 21.9158 20.8333 21.3859 20.8333 20.8333V8.33333M14.5833 2.08333L20.8333 8.33333M14.5833 2.08333L14.5833 8.33333H20.8333M16.6666 13.5417H8.33329M16.6666 17.7083H8.33329M10.4166 9.37499H8.33329" stroke="black" stroke-width="2" stroke-linecap="round" stroke-linejoin="round"/>
</svg>
