<svg width="24" height="26" viewBox="0 0 24 26" fill="none" xmlns="http://www.w3.org/2000/svg">
<path d="M5 20.5833H6.425L16.2 9.99375L14.775 8.45L5 19.0396V20.5833ZM3 22.75V18.1458L16.2 3.87292C16.4 3.67431 16.6208 3.52083 16.8625 3.4125C17.1042 3.30417 17.3583 3.25 17.625 3.25C17.8917 3.25 18.15 3.30417 18.4 3.4125C18.65 3.52083 18.8667 3.68333 19.05 3.9L20.425 5.41667C20.625 5.61528 20.7708 5.85 20.8625 6.12083C20.9542 6.39167 21 6.6625 21 6.93333C21 7.22222 20.9542 7.49757 20.8625 7.75938C20.7708 8.02118 20.625 8.26042 20.425 8.47708L7.25 22.75H3ZM15.475 9.23542L14.775 8.45L16.2 9.99375L15.475 9.23542Z" fill="#1D1B20"/>
</svg>
