<svg width="34" height="35" viewBox="0 0 34 35" fill="none" xmlns="http://www.w3.org/2000/svg">
  <path d="M5.66663 27.7083V24.7917H8.49996V14.5833C8.49996 12.566 9.09024 10.7795 10.2708 9.22395C11.4513 7.64409 12.9861 6.6111 14.875 6.12499V5.10416C14.875 4.49652 15.0757 3.9861 15.477 3.5729C15.902 3.13541 16.4097 2.91666 17 2.91666C17.5902 2.91666 18.0861 3.13541 18.4875 3.5729C18.9125 3.9861 19.125 4.49652 19.125 5.10416V6.12499C21.0138 6.6111 22.5486 7.64409 23.7291 9.22395C24.9097 10.7795 25.5 12.566 25.5 14.5833V24.7917H28.3333V27.7083H5.66663ZM17 32.0833C16.2208 32.0833 15.5479 31.8038 14.9812 31.2448C14.4382 30.6614 14.1666 29.9687 14.1666 29.1667H19.8333C19.8333 29.9687 19.55 30.6614 18.9833 31.2448C18.4402 31.8038 17.7791 32.0833 17 32.0833ZM11.3333 24.7917H22.6666V14.5833C22.6666 12.9792 22.1118 11.6059 21.002 10.4635C19.8923 9.32117 18.5583 8.74999 17 8.74999C15.4416 8.74999 14.1076 9.32117 12.9979 10.4635C11.8882 11.6059 11.3333 12.9792 11.3333 14.5833V24.7917Z" fill="#FEF7FF" fill-opacity="0.75"/>
  <circle cx="25" cy="8" r="4" fill="#FF3B30"/>
</svg>