<svg width="41" height="42" viewBox="0 0 41 42" fill="none" xmlns="http://www.w3.org/2000/svg">
<path d="M6.83337 33.25V29.75H10.25V17.5C10.25 15.0792 10.9618 12.9354 12.3855 11.0687C13.8091 9.17292 15.6598 7.93333 17.9375 7.35V6.125C17.9375 5.39583 18.1796 4.78333 18.6636 4.2875C19.1761 3.7625 19.7882 3.5 20.5 3.5C21.2118 3.5 21.8098 3.7625 22.2938 4.2875C22.8063 4.78333 23.0625 5.39583 23.0625 6.125V7.35C25.3403 7.93333 27.191 9.17292 28.6146 11.0687C30.0382 12.9354 30.75 15.0792 30.75 17.5V29.75H34.1667V33.25H6.83337ZM20.5 38.5C19.5605 38.5 18.749 38.1646 18.0657 37.4937C17.4108 36.7937 17.0834 35.9625 17.0834 35H23.9167C23.9167 35.9625 23.575 36.7937 22.8917 37.4937C22.2368 38.1646 21.4396 38.5 20.5 38.5ZM13.6667 29.75H27.3334V17.5C27.3334 15.575 26.6643 13.9271 25.3261 12.5562C23.9879 11.1854 22.3792 10.5 20.5 10.5C18.6209 10.5 17.0122 11.1854 15.674 12.5562C14.3358 13.9271 13.6667 15.575 13.6667 17.5V29.75Z" fill="#FEF7FF" fill-opacity="0.75"/>
</svg>
